<svg id="Capa_1" enable-background="new 0 0 511.998 511.998" height="512" viewBox="0 0 511.998 511.998" width="512" xmlns="http://www.w3.org/2000/svg"><g><g><path d="m504.494 290.998v18.409l-15.813 27.169c-5.668 9.722-16.072 15.71-27.334 15.71h-33.829c-7.126 0-14.045-2.41-19.629-6.836l-17.064-13.507c-12.731-10.094-28.068-16.351-44.233-18.047l-66.81-7.043-63.024 192.227h-209.26v-219.365l197.43-207.213h123.298l58.184 40.117c20.002 13.796 33.549 35.111 37.552 59.074l.155.972c1.582 9.463 6.164 18.161 13.062 24.811l46.725 45.05c13.155 12.689 20.59 30.187 20.59 48.472z" fill="#e49280"/><g fill="#dd7f66"><path d="m193.082 499.08h23.676l63.025-192.227-22.73-2.89z"/><path d="m483.904 242.525-46.725-45.05c-6.898-6.65-11.48-15.347-13.062-24.811l-.155-.972c-4.003-23.963-17.551-45.277-37.552-59.074l-58.184-40.117h-23.677l58.184 40.117c20.002 13.796 33.55 35.111 37.552 59.074l.155.972c1.582 9.463 6.164 18.161 13.062 24.811l46.725 45.05c13.155 12.69 20.591 30.188 20.591 48.473v18.409l-15.813 27.169c-5.668 9.722-16.072 15.71-27.334 15.71h23.677c11.263 0 21.667-5.988 27.334-15.71l15.813-27.169v-18.409c-.001-18.285-7.436-35.783-20.591-48.473z"/></g><path d="m423.961 171.692-45.199-8.408c-4.459-.829-8.763-2.342-12.76-4.483l-161.075-86.299h123.298l58.184 40.117c20.002 13.796 33.55 35.111 37.552 59.073z" fill="#ffcebf"/><path d="m399.396 167.123 24.565 4.57c-4.003-23.963-17.551-45.277-37.552-59.074l-58.184-40.117h-23.677l58.184 40.117c18.721 12.912 31.785 32.412 36.664 54.504z" fill="#ffb09e"/><path d="m7.501 386.886v-233.192l79.845-50.188-16.012-13.466c-4.089-3.439-3.596-9.9.992-12.637 13.394-7.99 41.294-21.195 79.732-21.454l-9.037-17.222c-2.352-4.482.328-9.949 5.311-10.84 20.182-3.61 68.439-8.832 118.496 10.797l2.545 33.818-62.97 61.048z" fill="#9e9797"/><path d="m266.826 38.684c-33.488-13.132-66.156-15.137-90.166-13.947 19.964 1.007 43.029 4.748 66.489 13.947l2.545 33.818-47.562 41.423-190.631 242.805v30.157l198.9-253.336 62.97-61.048z" fill="#8e8787"/><path d="m206.401 133.55s-19.793-41.114-15.796-58.322c3.997-17.209 35.372 3.92 55.823 19.513v48.634z" fill="#e49280"/><path d="m241.149 99.86 5.279-5.119c-20.451-15.593-51.826-36.722-55.823-19.513-.168.723-.29 1.492-.378 2.294 10.317 6.209 22.323 15.504 32.354 23.338 5.571 4.352 13.493 3.921 18.568-1z" fill="#dd7f66"/><path d="m328.225 72.502s-9.03-39.227-36.556-57.166c-8.831-5.755-20.656-.79-22.906 9.508-2.374 10.868-3.65 26.877.609 47.658z" fill="#e49280"/><path d="m291.669 15.336c-6.631-4.321-14.948-2.599-19.635 2.887 24.374 18.931 32.514 54.28 32.514 54.28h23.677c0-.001-9.03-39.228-36.556-57.167z" fill="#dd7f66"/></g><g><path d="m489.113 237.122-46.73-45.051c-5.29-5.003-9.92-13.433-11.027-21.615-4.311-25.822-19.142-49.152-40.689-64.01l-55.891-38.541c-2.781-9.922-13.508-42.232-39.011-58.853-6.177-4.026-13.946-4.758-20.779-1.956-6.893 2.826-11.957 8.862-13.548 16.146-3.11 14.231-3.166 29.919-.187 46.684l-15.448 14.977c-33.517-24.708-45.938-25.144-52.997-22.604-4.853 1.749-8.227 5.74-9.501 11.235-3.791 16.311 9.063 47.271 14.358 59.006l-196.061 249.715c-2.558 3.258-1.991 7.973 1.268 10.53 1.374 1.079 3.005 1.602 4.626 1.602 2.223 0 4.424-.985 5.904-2.869l198.9-253.336c1.492-1.961 2.267-5.012.856-7.883-7.206-14.985-17.717-42.726-15.242-53.374.061-.261.122-.443.169-.562.917-.168 5.158-.39 16.554 5.92 7.463 4.132 16.629 10.33 27.244 18.422.05.038.102.068.153.105.119.087.24.17.363.249.092.059.185.115.279.169.081.047.16.098.242.141l119.542 64.045c4.677 2.502 9.697 4.266 14.926 5.241l40.224 7.484c2.376 9.43 7.288 17.913 14.363 24.732l46.728 45.048c11.629 11.222 18.298 26.925 18.298 43.083v10.903c-5.42.578-12.564-1.68-16.459-7.019-8.125-11.263-15.431-18.523-21.714-21.579-3.723-1.811-8.213-.259-10.024 3.465-1.812 3.726-.26 8.213 3.466 10.025 1.825.888 7.05 4.308 16.106 16.863 5.452 7.561 13.966 12.33 23.156 13.116l-9.333 16.024c-4.3 7.39-12.288 11.981-20.848 11.981h-33.83c-19.471-1.512-33.167-24.597-52.005-30.812-14.735-9.19-16.663-29.429-16.694-29.772-.331-4.117-3.928-7.189-8.054-6.876-4.13.319-7.219 3.926-6.899 8.056.053.689.91 10.656 6.189 21.385-5.076-.636-65.389-7.012-70.246-7.409-8.536-.698-67.515-2.543-82.054-48.372-1.253-3.948-5.47-6.134-9.417-4.881-3.948 1.252-6.133 5.469-4.881 9.417 7.557 23.821 26.774 41.565 55.573 51.315 11.893 4.027 23.046 5.9 30.652 6.77l-60.05 183.142c-1.291 3.936.854 8.173 4.79 9.463.776.255 1.563.375 2.338.375 3.154 0 6.089-2.005 7.125-5.165l61.143-186.473 60.776 6.405c8.051.846 15.856 2.932 23.179 6.139 19.849 7.367 35.098 32.683 58.535 32.292h33.83c13.882 0 26.838-7.448 33.811-19.435l15.82-27.16c.408-.847 1.01-1.912 1.02-3.775v-18.41c-.002-20.205-8.342-39.842-22.887-53.878zm-119.573-84.932-110.52-59.211 15.568-15.093c1.383-1.58 2.585-3.077 2.131-6.89-4.146-20.229-2.631-35.393-.629-44.553.547-2.505 2.218-4.498 4.584-5.468 2.306-.945 4.819-.711 6.899.644 16.877 10.999 26.254 31.493 30.504 43.383h-12.341c-4.142 0-7.5 3.358-7.5 7.5s3.357 7.5 7.5 7.5l20.157.001 56.256 38.793c13.479 9.438 26.022 24.19 31.838 43.412l-33.856-6.3c-3.711-.693-7.276-1.944-10.591-3.718z"/><path d="m340.665 215.395v-19.465c0-4.142-3.357-7.5-7.5-7.5s-7.5 3.358-7.5 7.5v19.465c0 4.142 3.357 7.5 7.5 7.5s7.5-3.358 7.5-7.5z"/><path d="m7.508 161.195c1.364 0 2.744-.372 3.984-1.151l75.118-47.217 5.245 4.588c1.423 1.245 3.182 1.855 4.935 1.855 2.088 0 4.165-.867 5.648-2.562 2.727-3.118 2.411-7.856-.707-10.583l-9.447-8.264c-.02-.018-.042-.032-.062-.049-.017-.014-.031-.031-.048-.045l-16.013-13.468c-.048-.041-.121-.102-.108-.262.011-.132.059-.161.114-.194 12.59-7.511 39.196-20.147 75.939-20.395 2.617-.018 5.035-1.397 6.381-3.641s1.426-5.027.21-7.344l-9.046-17.195c15.195-2.719 45.952-6.238 81.213.736 4.062.802 8.009-1.838 8.812-5.902.804-4.063-1.839-8.009-5.902-8.812-37.671-7.451-70.53-3.691-86.765-.787-4.685.838-8.73 3.89-10.822 8.162-2.122 4.334-2.052 9.271.191 13.547l3.534 6.735c-34.077 2.586-58.963 14.577-71.43 22.015-4.225 2.52-6.984 6.956-7.381 11.867-.398 4.929 1.622 9.77 5.404 12.951l8.143 6.849-71.138 44.715c-3.507 2.204-4.563 6.834-2.358 10.341 1.424 2.267 3.863 3.51 6.356 3.51z"/><path d="m159.384 442.262c-3.746-1.771-8.216-.169-9.985 3.576l-23.647 50.037c-1.77 3.745-.169 8.216 3.576 9.985 1.035.489 2.126.721 3.2.721 2.811 0 5.505-1.587 6.786-4.297l23.647-50.037c1.769-3.744.168-8.215-3.577-9.985z"/><path d="m184.967 388.129c-3.745-1.77-8.216-.169-9.985 3.576l-10.531 22.284c-1.77 3.745-.169 8.216 3.576 9.985 1.035.489 2.126.721 3.2.721 2.811 0 5.505-1.588 6.786-4.297l10.531-22.284c1.769-3.745.168-8.215-3.577-9.985z"/></g></g></svg>